<svg xmlns="http://www.w3.org/2000/svg" id="mermaid-svg-cUOatXSZy8XjN1Cp" height="100%" width="100%" style="max-width:1850px;" viewBox="-50 -10 1850 810"><g></g><g><line id="actor2911" x1="75" y1="5" x2="75" y2="799" class="actor-line" stroke-width="0.5px" stroke="#999"></line><rect x="0" y="0" fill="#eaeaea" stroke="#666" width="150" height="65" rx="3" ry="3" class="actor"></rect><text x="75" y="32.5" dominant-baseline="central" alignment-baseline="central" class="actor" style="text-anchor: middle;"><tspan x="75" dy="0">Vana</tspan></text></g><g><line id="actor2912" x1="275" y1="5" x2="275" y2="799" class="actor-line" stroke-width="0.5px" stroke="#999"></line><rect x="200" y="0" fill="#eaeaea" stroke="#666" width="150" height="65" rx="3" ry="3" class="actor"></rect><text x="275" y="32.5" dominant-baseline="central" alignment-baseline="central" class="actor" style="text-anchor: middle;"><tspan x="275" dy="0">Bob</tspan></text></g><g><line id="actor2913" x1="475" y1="5" x2="475" y2="799" class="actor-line" stroke-width="0.5px" stroke="#999"></line><rect x="400" y="0" fill="#eaeaea" stroke="#666" width="150" height="65" rx="3" ry="3" class="actor"></rect><text x="475" y="32.5" dominant-baseline="central" alignment-baseline="central" class="actor" style="text-anchor: middle;"><tspan x="475" dy="0">Recorder</tspan></text></g><g><line id="actor2914" x1="675" y1="5" x2="675" y2="799" class="actor-line" stroke-width="0.5px" stroke="#999"></line><rect x="600" y="0" fill="#eaeaea" stroke="#666" width="150" height="65" rx="3" ry="3" class="actor"></rect><text x="675" y="32.5" dominant-baseline="central" alignment-baseline="central" class="actor" style="text-anchor: middle;"><tspan x="675" dy="0">Victor_Cleaner</tspan></text></g><g><line id="actor2915" x1="875" y1="5" x2="875" y2="799" class="actor-line" stroke-width="0.5px" stroke="#999"></line><rect x="800" y="0" fill="#eaeaea" stroke="#666" width="150" height="65" rx="3" ry="3" class="actor"></rect><text x="875" y="32.5" dominant-baseline="central" alignment-baseline="central" class="actor" style="text-anchor: middle;"><tspan x="875" dy="0">Hippokrates</tspan></text></g><g><line id="actor2916" x1="1075" y1="5" x2="1075" y2="799" class="actor-line" stroke-width="0.5px" stroke="#999"></line><rect x="1000" y="0" fill="#eaeaea" stroke="#666" width="150" height="65" rx="3" ry="3" class="actor"></rect><text x="1075" y="32.5" dominant-baseline="central" alignment-baseline="central" class="actor" style="text-anchor: middle;"><tspan x="1075" dy="0">Alchymist</tspan></text></g><g><line id="actor2917" x1="1275" y1="5" x2="1275" y2="799" class="actor-line" stroke-width="0.5px" stroke="#999"></line><rect x="1200" y="0" fill="#eaeaea" stroke="#666" width="150" height="65" rx="3" ry="3" class="actor"></rect><text x="1275" y="32.5" dominant-baseline="central" alignment-baseline="central" class="actor" style="text-anchor: middle;"><tspan x="1275" dy="0">Tent</tspan></text></g><g><line id="actor2918" x1="1475" y1="5" x2="1475" y2="799" class="actor-line" stroke-width="0.5px" stroke="#999"></line><rect x="1400" y="0" fill="#eaeaea" stroke="#666" width="150" height="65" rx="3" ry="3" class="actor"></rect><text x="1475" y="32.5" dominant-baseline="central" alignment-baseline="central" class="actor" style="text-anchor: middle;"><tspan x="1475" dy="0">Charon</tspan></text></g><g><line id="actor2919" x1="1675" y1="5" x2="1675" y2="799" class="actor-line" stroke-width="0.5px" stroke="#999"></line><rect x="1600" y="0" fill="#eaeaea" stroke="#666" width="150" height="65" rx="3" ry="3" class="actor"></rect><text x="1675" y="32.5" dominant-baseline="central" alignment-baseline="central" class="actor" style="text-anchor: middle;"><tspan x="1675" dy="0">HOME</tspan></text></g><defs><marker id="arrowhead" refX="5" refY="2" markerWidth="6" markerHeight="4" orient="auto"><path d="M 0,0 V 4 L6,2 Z"></path></marker></defs><defs><marker id="crosshead" markerWidth="15" markerHeight="8" orient="auto" refX="16" refY="4"><path fill="black" stroke="#000000" stroke-width="1px" d="M 9,2 V 6 L16,4 Z" style="stroke-dasharray: 0, 0;"></path><path fill="none" stroke="#000000" stroke-width="1px" d="M 0,1 L 6,7 M 6,1 L 0,7" style="stroke-dasharray: 0, 0;"></path></marker></defs><g><text x="175" y="93" class="messageText" style="text-anchor: middle;">Hello Bob, wellcome and wait please</text><line x1="75" y1="100" x2="275" y2="100" class="messageLine0" stroke-width="2" stroke="black" marker-end="url(#arrowhead)" style="fill: none;"></line></g><g><rect x="300" y="110" fill="#EDF2AE" stroke="#666" width="150" height="34.5" rx="0" ry="0" class="note"></rect><text x="296" y="134" fill="black" class="noteText"><tspan x="316" fill="black">Bob is waiting in line</tspan></text></g><g><text x="375" y="172.5" class="messageText" style="text-anchor: middle;">Waiting to be registered</text><line x1="275" y1="179.5" x2="475" y2="179.5" class="messageLine1" stroke-width="2" stroke="black" marker-end="url(#arrowhead)" style="stroke-dasharray: 3, 3; fill: none;"></line></g><g><rect x="500" y="189.5" fill="#EDF2AE" stroke="#666" width="150" height="62.5" rx="0" ry="0" class="note"></rect><text x="496" y="213.5" fill="black" class="noteText"><tspan x="516" fill="black">Recorder process Bob</tspan></text><text x="496" y="227.5" fill="black" class="noteText"><tspan x="516" fill="black"> and assigns ID</tspan></text><text x="496" y="242" fill="black" class="noteText"><tspan x="516" fill="black"> number to Bob</tspan></text></g><g><text x="575" y="280" class="messageText" style="text-anchor: middle;">Bob moves to preparing station</text><line x1="475" y1="287" x2="675" y2="287" class="messageLine1" stroke-width="2" stroke="black" marker-end="url(#arrowhead)" style="stroke-dasharray: 3, 3; fill: none;"></line></g><g><rect x="700" y="297" fill="#EDF2AE" stroke="#666" width="150" height="76.5" rx="0" ry="0" class="note"></rect><text x="696" y="321" fill="black" class="noteText"><tspan x="716" fill="black">Bob, please clean </tspan></text><text x="696" y="335" fill="black" class="noteText"><tspan x="716" fill="black"> your nose cavity. </tspan></text><text x="696" y="349" fill="black" class="noteText"><tspan x="716" fill="black"> Wait for Bob to be </tspan></text><text x="696" y="363" fill="black" class="noteText"><tspan x="716" fill="black"> ready for sampling</tspan></text></g><g><text x="775" y="401.5" class="messageText" style="text-anchor: middle;">Bob moves to taking samples</text><line x1="675" y1="408.5" x2="875" y2="408.5" class="messageLine1" stroke-width="2" stroke="black" marker-end="url(#arrowhead)" style="stroke-dasharray: 3, 3; fill: none;"></line></g><g><rect x="900" y="418.5" fill="#EDF2AE" stroke="#666" width="150" height="48" rx="0" ry="0" class="note"></rect><text x="896" y="442.5" fill="black" class="noteText"><tspan x="916" fill="black">Take and prepare</tspan></text><text x="896" y="456.5" fill="black" class="noteText"><tspan x="916" fill="black">sample</tspan></text></g><g><text x="975" y="494.5" class="messageText" style="text-anchor: middle;">Forward sample to Anlayse</text><line x1="875" y1="501.5" x2="1075" y2="501.5" class="messageLine0" stroke-width="2" stroke="black" marker-end="url(#arrowhead)" style="fill: none;"></line></g><g><text x="1075" y="529.5" class="messageText" style="text-anchor: middle;">Bob moves to tent and wait for results</text><line x1="875" y1="536.5" x2="1275" y2="536.5" class="messageLine1" stroke-width="2" stroke="black" marker-end="url(#arrowhead)" style="stroke-dasharray: 3, 3; fill: none;"></line></g><g><rect x="1100" y="546.5" fill="#EDF2AE" stroke="#666" width="150" height="62.5" rx="0" ry="0" class="note"></rect><text x="1096" y="570.5" fill="black" class="noteText"><tspan x="1116" fill="black">Bob is waiting for</tspan></text><text x="1096" y="585" fill="black" class="noteText"><tspan x="1116" fill="black">certificate from</tspan></text><text x="1096" y="599" fill="black" class="noteText"><tspan x="1116" fill="black">Charon</tspan></text></g><g><text x="1275" y="637" class="messageText" style="text-anchor: middle;">Forward Result to make Certificate</text><line x1="1075" y1="644" x2="1475" y2="644" class="messageLine0" stroke-width="2" stroke="black" marker-end="url(#arrowhead)" style="fill: none;"></line></g><g><text x="1375" y="672" class="messageText" style="text-anchor: middle;">Issue Certificate for Bob</text><line x1="1475" y1="679" x2="1275" y2="679" class="messageLine0" stroke-width="2" stroke="black" marker-end="url(#arrowhead)" style="fill: none;"></line></g><g><text x="1475" y="707" class="messageText" style="text-anchor: middle;">Testing is done, Bob is going home</text><line x1="1275" y1="714" x2="1675" y2="714" class="messageLine1" stroke-width="2" stroke="black" marker-end="url(#arrowhead)" style="stroke-dasharray: 3, 3; fill: none;"></line></g><g><rect x="0" y="734" fill="#eaeaea" stroke="#666" width="150" height="65" rx="3" ry="3" class="actor"></rect><text x="75" y="766.5" dominant-baseline="central" alignment-baseline="central" class="actor" style="text-anchor: middle;"><tspan x="75" dy="0">Vana</tspan></text></g><g><rect x="200" y="734" fill="#eaeaea" stroke="#666" width="150" height="65" rx="3" ry="3" class="actor"></rect><text x="275" y="766.5" dominant-baseline="central" alignment-baseline="central" class="actor" style="text-anchor: middle;"><tspan x="275" dy="0">Bob</tspan></text></g><g><rect x="400" y="734" fill="#eaeaea" stroke="#666" width="150" height="65" rx="3" ry="3" class="actor"></rect><text x="475" y="766.5" dominant-baseline="central" alignment-baseline="central" class="actor" style="text-anchor: middle;"><tspan x="475" dy="0">Recorder</tspan></text></g><g><rect x="600" y="734" fill="#eaeaea" stroke="#666" width="150" height="65" rx="3" ry="3" class="actor"></rect><text x="675" y="766.5" dominant-baseline="central" alignment-baseline="central" class="actor" style="text-anchor: middle;"><tspan x="675" dy="0">Victor_Cleaner</tspan></text></g><g><rect x="800" y="734" fill="#eaeaea" stroke="#666" width="150" height="65" rx="3" ry="3" class="actor"></rect><text x="875" y="766.5" dominant-baseline="central" alignment-baseline="central" class="actor" style="text-anchor: middle;"><tspan x="875" dy="0">Hippokrates</tspan></text></g><g><rect x="1000" y="734" fill="#eaeaea" stroke="#666" width="150" height="65" rx="3" ry="3" class="actor"></rect><text x="1075" y="766.5" dominant-baseline="central" alignment-baseline="central" class="actor" style="text-anchor: middle;"><tspan x="1075" dy="0">Alchymist</tspan></text></g><g><rect x="1200" y="734" fill="#eaeaea" stroke="#666" width="150" height="65" rx="3" ry="3" class="actor"></rect><text x="1275" y="766.5" dominant-baseline="central" alignment-baseline="central" class="actor" style="text-anchor: middle;"><tspan x="1275" dy="0">Tent</tspan></text></g><g><rect x="1400" y="734" fill="#eaeaea" stroke="#666" width="150" height="65" rx="3" ry="3" class="actor"></rect><text x="1475" y="766.5" dominant-baseline="central" alignment-baseline="central" class="actor" style="text-anchor: middle;"><tspan x="1475" dy="0">Charon</tspan></text></g><g><rect x="1600" y="734" fill="#eaeaea" stroke="#666" width="150" height="65" rx="3" ry="3" class="actor"></rect><text x="1675" y="766.5" dominant-baseline="central" alignment-baseline="central" class="actor" style="text-anchor: middle;"><tspan x="1675" dy="0">HOME</tspan></text></g></svg>